# xmcd CD database file
#
# Track frame offsets:
#	187
#	17675
#	34057
#
# Disc length: 685 seconds
#
# Revision: 1
# Processed by: cddbd v1.5.1PL0 Copyright (c) Steve Scherf et al.
# Submitted via: CDex 1.51
#
DISCID=1902ab03
DTITLE=広瀬香美 - 夏だモン
DYEAR=1997
DGENRE=JPop
TTITLE0=夏だモン
TTITLE1=カリフォルニアの青い空
TTITLE2=夏だモン(オリジナル・カラオケ)
EXTD=YEAR: 1997
EXTT0=
EXTT1=
EXTT2=
PLAYORDER=
